<mxfile host="app.diagrams.net" agent="Mozilla/5.0 (Windows NT 10.0; Win64; x64) AppleWebKit/537.36 (KHTML, like Gecko) Chrome/137.0.0.0 Safari/537.36" version="27.1.4">
  <diagram name="Page-1" id="l8YTX-6cOPPoikClIkrm">
    <mxGraphModel dx="1042" dy="562" grid="1" gridSize="10" guides="1" tooltips="1" connect="1" arrows="1" fold="1" page="1" pageScale="1" pageWidth="850" pageHeight="1100" math="0" shadow="0">
      <root>
        <mxCell id="0" />
        <mxCell id="1" parent="0" />
        <mxCell id="bysPSU3KUHxThp5r5Yt8-27" style="edgeStyle=orthogonalEdgeStyle;rounded=0;orthogonalLoop=1;jettySize=auto;html=1;exitX=0.5;exitY=1;exitDx=0;exitDy=0;entryX=0.5;entryY=0;entryDx=0;entryDy=0;" edge="1" parent="1" source="bysPSU3KUHxThp5r5Yt8-10" target="bysPSU3KUHxThp5r5Yt8-26">
          <mxGeometry relative="1" as="geometry" />
        </mxCell>
        <mxCell id="bysPSU3KUHxThp5r5Yt8-10" value="Begin" style="ellipse;whiteSpace=wrap;html=1;" vertex="1" parent="1">
          <mxGeometry x="110" y="20" width="120" height="80" as="geometry" />
        </mxCell>
        <mxCell id="bysPSU3KUHxThp5r5Yt8-25" value="&lt;h1 style=&quot;margin-top: 0px;&quot;&gt;Thuật toán&lt;br&gt;&amp;nbsp;&lt;/h1&gt;&lt;div&gt;&lt;div&gt;Input a, b, c&lt;/div&gt;&lt;div&gt;&lt;br&gt;&lt;/div&gt;&lt;div&gt;&lt;br&gt;&lt;/div&gt;&lt;div&gt;&lt;br&gt;&lt;/div&gt;&lt;div&gt;Nếu (a &amp;gt; b) và (a &amp;gt; c) thì:&lt;/div&gt;&lt;div&gt;&amp;nbsp; &amp;nbsp; max = a&lt;/div&gt;&lt;div&gt;Ngược lại:&lt;/div&gt;&lt;div&gt;&amp;nbsp; &amp;nbsp; Nếu (b &amp;gt; c) thì:&lt;/div&gt;&lt;div&gt;&amp;nbsp; &amp;nbsp; &amp;nbsp; &amp;nbsp; max = b&lt;/div&gt;&lt;div&gt;&amp;nbsp; &amp;nbsp; Ngược lại:&lt;/div&gt;&lt;div&gt;&amp;nbsp; &amp;nbsp; &amp;nbsp; &amp;nbsp; max = c&lt;/div&gt;&lt;div&gt;&lt;br&gt;&lt;/div&gt;&lt;div&gt;In ra max&lt;/div&gt;&lt;/div&gt;&lt;div&gt;&lt;br&gt;&lt;/div&gt;" style="text;html=1;whiteSpace=wrap;overflow=hidden;rounded=0;" vertex="1" parent="1">
          <mxGeometry x="530" y="30" width="210" height="320" as="geometry" />
        </mxCell>
        <mxCell id="bysPSU3KUHxThp5r5Yt8-26" value="Input a,b,c" style="shape=parallelogram;perimeter=parallelogramPerimeter;whiteSpace=wrap;html=1;fixedSize=1;" vertex="1" parent="1">
          <mxGeometry x="110" y="130" width="120" height="60" as="geometry" />
        </mxCell>
        <mxCell id="bysPSU3KUHxThp5r5Yt8-31" style="edgeStyle=orthogonalEdgeStyle;rounded=0;orthogonalLoop=1;jettySize=auto;html=1;exitX=0.5;exitY=1;exitDx=0;exitDy=0;entryX=0.5;entryY=0;entryDx=0;entryDy=0;" edge="1" parent="1" target="bysPSU3KUHxThp5r5Yt8-30">
          <mxGeometry relative="1" as="geometry">
            <mxPoint x="160" y="330" as="sourcePoint" />
          </mxGeometry>
        </mxCell>
        <mxCell id="bysPSU3KUHxThp5r5Yt8-29" style="edgeStyle=orthogonalEdgeStyle;rounded=0;orthogonalLoop=1;jettySize=auto;html=1;exitX=0.5;exitY=1;exitDx=0;exitDy=0;entryX=0.583;entryY=-0.017;entryDx=0;entryDy=0;entryPerimeter=0;" edge="1" parent="1" source="bysPSU3KUHxThp5r5Yt8-26">
          <mxGeometry relative="1" as="geometry">
            <mxPoint x="169.96000000000004" y="268.98" as="targetPoint" />
          </mxGeometry>
        </mxCell>
        <mxCell id="bysPSU3KUHxThp5r5Yt8-30" value="End" style="ellipse;whiteSpace=wrap;html=1;" vertex="1" parent="1">
          <mxGeometry x="100" y="470" width="120" height="80" as="geometry" />
        </mxCell>
        <mxCell id="bysPSU3KUHxThp5r5Yt8-33" value="Out Put" style="shape=parallelogram;perimeter=parallelogramPerimeter;whiteSpace=wrap;html=1;fixedSize=1;" vertex="1" parent="1">
          <mxGeometry x="100" y="370" width="120" height="60" as="geometry" />
        </mxCell>
        <mxCell id="bysPSU3KUHxThp5r5Yt8-34" style="edgeStyle=orthogonalEdgeStyle;rounded=0;orthogonalLoop=1;jettySize=auto;html=1;exitX=0.75;exitY=1;exitDx=0;exitDy=0;" edge="1" parent="1" source="bysPSU3KUHxThp5r5Yt8-25" target="bysPSU3KUHxThp5r5Yt8-25">
          <mxGeometry relative="1" as="geometry" />
        </mxCell>
        <mxCell id="bysPSU3KUHxThp5r5Yt8-36" style="edgeStyle=orthogonalEdgeStyle;rounded=0;orthogonalLoop=1;jettySize=auto;html=1;exitX=1;exitY=0.5;exitDx=0;exitDy=0;" edge="1" parent="1" source="bysPSU3KUHxThp5r5Yt8-35">
          <mxGeometry relative="1" as="geometry">
            <mxPoint x="290" y="300" as="targetPoint" />
          </mxGeometry>
        </mxCell>
        <mxCell id="bysPSU3KUHxThp5r5Yt8-41" style="edgeStyle=orthogonalEdgeStyle;rounded=0;orthogonalLoop=1;jettySize=auto;html=1;exitX=0;exitY=0.5;exitDx=0;exitDy=0;" edge="1" parent="1" source="bysPSU3KUHxThp5r5Yt8-35">
          <mxGeometry relative="1" as="geometry">
            <mxPoint x="50" y="290" as="targetPoint" />
          </mxGeometry>
        </mxCell>
        <mxCell id="bysPSU3KUHxThp5r5Yt8-35" value="a&amp;gt;c&lt;div&gt;a&amp;gt;b&lt;/div&gt;" style="rhombus;whiteSpace=wrap;html=1;" vertex="1" parent="1">
          <mxGeometry x="120" y="250" width="80" height="80" as="geometry" />
        </mxCell>
        <mxCell id="bysPSU3KUHxThp5r5Yt8-37" value="&lt;h1 style=&quot;margin-top: 0px;&quot;&gt;đúng&lt;/h1&gt;" style="text;html=1;whiteSpace=wrap;overflow=hidden;rounded=0;" vertex="1" parent="1">
          <mxGeometry x="210" y="240" width="180" height="120" as="geometry" />
        </mxCell>
        <mxCell id="bysPSU3KUHxThp5r5Yt8-38" value="Out Put max a" style="shape=parallelogram;perimeter=parallelogramPerimeter;whiteSpace=wrap;html=1;fixedSize=1;" vertex="1" parent="1">
          <mxGeometry x="280" y="270" width="120" height="60" as="geometry" />
        </mxCell>
        <mxCell id="bysPSU3KUHxThp5r5Yt8-42" value="&lt;h1 style=&quot;margin-top: 0px;&quot;&gt;Sai&lt;/h1&gt;" style="text;html=1;whiteSpace=wrap;overflow=hidden;rounded=0;" vertex="1" parent="1">
          <mxGeometry x="80" y="250" width="180" height="120" as="geometry" />
        </mxCell>
      </root>
    </mxGraphModel>
  </diagram>
</mxfile>
